<svg width="25" height="25" viewBox="0 0 25 25" fill="none" xmlns="http://www.w3.org/2000/svg">
<g id="chevron-up">
<path id="Vector" fill-rule="evenodd" clip-rule="evenodd" d="M11.8323 7.46888C11.9019 7.39903 11.9847 7.34362 12.0758 7.30581C12.1669 7.268 12.2646 7.24854 12.3633 7.24854C12.4619 7.24854 12.5596 7.268 12.6507 7.30581C12.7418 7.34362 12.8246 7.39903 12.8943 7.46888L21.8943 16.4689C22.0351 16.6097 22.1142 16.8007 22.1142 16.9999C22.1142 17.199 22.0351 17.39 21.8943 17.5309C21.7534 17.6717 21.5624 17.7508 21.3633 17.7508C21.1641 17.7508 20.9731 17.6717 20.8323 17.5309L12.3633 9.06038L3.89425 17.5309C3.75342 17.6717 3.56242 17.7508 3.36325 17.7508C3.16409 17.7508 2.97308 17.6717 2.83225 17.5309C2.69142 17.39 2.6123 17.199 2.6123 16.9999C2.6123 16.8007 2.69142 16.6097 2.83225 16.4689L11.8323 7.46888Z" fill="#EAFBFF"/>
</g>
</svg>
